<?xml version="1.0" standalone="no"?>
<!DOCTYPE svg PUBLIC "-//W3C//DTD SVG 20010904//EN"
 "http://www.w3.org/TR/2001/REC-SVG-20010904/DTD/svg10.dtd">
<svg version="1.0" xmlns="http://www.w3.org/2000/svg"
 width="16.000000pt" height="16.000000pt" viewBox="0 0 16.000000 16.000000"
 preserveAspectRatio="xMidYMid meet">
<metadata>
Created by potrace 1.11, written by Peter Selinger 2001-2013
</metadata>
<g transform="translate(0.000000,16.000000) scale(0.004432,-0.004432)"
fill="#000000" stroke="none">
<path d="M1977 3549 c-15 -25 -27 -49 -27 -52 0 -4 -10 -18 -22 -32 -19 -22
-30 -25 -87 -25 -178 -1 -610 -66 -876 -131 -77 -19 -206 -75 -218 -96 -4 -7
-21 -13 -36 -13 -20 0 -30 -6 -34 -20 -4 -14 -14 -20 -35 -20 -17 0 -33 -4
-36 -9 -3 -4 -20 -11 -37 -15 -40 -8 -59 -23 -52 -42 3 -8 -1 -14 -10 -14 -8
0 -20 -7 -27 -15 -17 -21 29 -112 74 -145 18 -14 49 -37 67 -51 19 -15 77 -41
129 -59 76 -26 117 -34 203 -38 59 -3 107 -9 107 -13 0 -5 -6 -9 -12 -9 -67
-3 -115 -12 -123 -24 -6 -8 -28 -18 -49 -22 -25 -4 -40 -13 -43 -25 -4 -14
-11 -17 -29 -13 -17 4 -33 -1 -55 -20 -19 -16 -38 -24 -49 -21 -24 7 -91 -22
-85 -38 8 -18 -31 -38 -76 -39 -21 0 -44 -7 -50 -14 -6 -8 -20 -14 -30 -14
-10 0 -24 -9 -31 -20 -7 -11 -21 -20 -32 -20 -10 0 -35 -14 -55 -30 -20 -17
-41 -35 -48 -40 -7 -6 -22 -10 -33 -10 -20 0 -20 -1 4 -33 14 -19 23 -36 20
-39 -11 -11 133 -121 199 -153 l69 -32 -28 -22 c-15 -12 -34 -19 -41 -17 -8 3
-21 2 -31 -3 -9 -5 -48 -24 -87 -42 -52 -25 -71 -40 -73 -57 -2 -12 -9 -22
-16 -22 -6 0 -20 -14 -29 -30 -10 -16 -22 -30 -28 -30 -14 0 -11 -28 12 -91
19 -51 28 -61 78 -93 31 -19 77 -42 101 -51 122 -44 184 -64 283 -90 123 -32
123 -41 -2 -57 -75 -9 -150 -41 -168 -72 -11 -18 -47 -36 -72 -36 -14 0 -21
-6 -21 -20 0 -13 -7 -20 -20 -20 -25 0 -25 -14 -2 -91 10 -35 30 -75 47 -94
32 -36 199 -128 327 -180 86 -35 127 -72 90 -81 -23 -7 -92 -87 -92 -107 0 -8
-9 -21 -21 -28 l-20 -14 22 -50 c27 -62 38 -70 231 -182 252 -146 413 -193
677 -199 89 -3 157 0 160 5 4 5 24 6 51 1 32 -6 49 -5 60 4 9 8 36 12 65 10
28 -1 55 1 60 6 6 4 25 8 43 8 18 0 40 6 48 13 8 6 17 9 21 6 3 -4 14 0 25 7
20 14 85 11 101 -4 16 -14 -3 -48 -26 -48 -12 0 -40 -5 -62 -11 -200 -51 -356
-71 -553 -71 -118 0 -153 -3 -150 -12 3 -7 58 -53 123 -103 l119 -90 180 1
c239 1 278 6 435 61 119 41 166 69 226 136 72 80 145 228 127 258 -7 10 -9 19
-4 19 4 0 14 21 21 46 10 33 18 44 29 39 9 -3 28 10 52 36 22 25 42 39 49 35
18 -11 67 15 85 45 9 15 37 36 65 47 42 19 56 32 98 99 62 99 87 155 79 181
-4 11 -49 64 -101 118 -95 98 -106 114 -82 114 6 1 21 15 32 33 15 23 29 33
53 35 20 2 32 9 32 18 0 8 4 14 9 14 5 0 11 9 14 21 3 12 10 19 14 16 13 -8
28 5 44 37 8 16 30 38 50 48 49 25 135 195 142 281 6 80 -10 118 -83 192 -70
70 -138 111 -245 145 -96 31 -101 36 -66 71 16 16 37 29 45 29 9 0 16 7 16 15
0 9 11 20 23 24 38 15 82 156 89 286 3 42 0 50 -17 53 -11 3 -40 22 -64 43
-65 58 -150 95 -288 126 -72 16 -123 33 -123 40 0 6 18 30 41 53 62 62 84 119
83 215 0 94 -18 167 -38 159 -8 -3 -31 6 -53 20 -96 63 -323 118 -578 141
l-70 7 -36 76 -35 77 -27 -46z m368 -334 c75 -9 264 -55 272 -68 3 -5 -6 -20
-20 -32 -15 -11 -27 -26 -27 -33 0 -7 -13 -15 -29 -18 -17 -4 -38 -15 -47 -25
-9 -11 -23 -19 -31 -19 -14 0 -55 -20 -64 -33 -3 -4 -36 -23 -75 -43 l-69 -36
-205 -9 c-207 -8 -307 -14 -435 -25 -51 -4 -66 -3 -55 5 8 6 21 11 29 11 27 0
171 75 167 86 -3 8 15 14 50 19 37 4 54 11 54 21 0 8 8 14 18 14 11 0 27 9 37
20 10 11 26 20 35 20 21 0 44 25 36 39 -3 5 12 16 34 25 28 11 40 22 40 36 0
10 10 28 22 39 19 18 31 20 117 16 53 -3 119 -7 146 -10z m-785 -55 c0 -5 -9
-10 -20 -10 -11 0 -20 5 -20 10 0 6 9 10 20 10 11 0 20 -4 20 -10z m-102 -24
c-17 -15 -35 -22 -47 -19 -10 3 -31 -3 -45 -13 -15 -9 -48 -19 -73 -21 -25 -2
-57 -13 -71 -24 -15 -11 -29 -16 -34 -11 -5 5 -31 3 -61 -5 -29 -8 -61 -16
-72 -17 -11 -2 -39 -6 -62 -10 -24 -4 -43 -5 -43 -2 0 12 98 54 170 74 41 11
125 30 185 41 61 11 119 22 130 25 45 9 50 5 23 -18z m1097 -546 c61 -18 142
-48 180 -68 39 -19 92 -42 119 -51 l49 -17 -50 -36 c-28 -20 -65 -44 -82 -52
-17 -9 -31 -20 -31 -25 0 -5 -9 -11 -20 -14 -11 -3 -20 -13 -20 -22 0 -14 -7
-15 -47 -10 -27 4 -81 16 -121 27 -148 40 -321 68 -490 80 -112 8 -171 16
-169 22 2 6 14 12 28 14 13 2 34 15 45 29 18 21 25 23 43 14 24 -14 74 7 85
35 4 9 12 14 22 10 8 -3 25 1 38 9 13 9 31 13 41 8 14 -5 17 -3 12 10 -7 18
10 33 34 29 9 -2 22 4 29 13 7 8 23 15 36 15 12 0 26 5 30 11 11 18 117 4 239
-31z m-950 20 c40 -15 20 -33 -27 -25 -30 5 -39 4 -33 -5 4 -7 -1 -13 -14 -17
-12 -3 -21 -8 -21 -12 0 -16 -62 -41 -108 -44 -32 -1 -48 -6 -45 -13 5 -15 -9
-24 -45 -30 -15 -3 -51 -12 -81 -21 -29 -8 -69 -13 -87 -10 -20 3 -34 2 -34
-4 0 -6 6 -7 13 -3 8 5 8 2 -2 -9 -7 -10 -27 -17 -45 -17 -24 0 -27 3 -16 10
12 8 11 10 -7 10 -12 0 -26 -8 -32 -17 -5 -10 -13 -15 -17 -11 -4 5 -13 3 -20
-3 -9 -8 -11 -5 -7 11 22 82 276 186 482 195 52 2 99 9 105 15 12 12 9 12 41
0z m155 -174 c0 -23 -21 -35 -40 -24 -10 6 -25 8 -35 4 -17 -6 -17 -7 0 -26
18 -20 65 -28 65 -12 0 5 6 16 13 25 11 16 16 13 57 -29 35 -36 39 -44 20 -35
-22 10 -22 10 -5 -1 11 -7 37 -30 59 -51 33 -32 38 -41 32 -68 -3 -17 -6 -40
-6 -50 0 -11 -4 -19 -10 -19 -5 0 -10 13 -10 29 0 29 -26 101 -36 101 -3 0 -3
-4 0 -9 4 -5 1 -11 -4 -13 -7 -2 -8 -12 -2 -28 5 -14 13 -23 18 -20 20 11 15
-71 -6 -105 -20 -32 -26 -35 -69 -35 -26 0 -52 5 -59 12 -9 9 -15 9 -27 -2
-12 -13 -11 -15 13 -17 15 -2 50 -5 78 -9 50 -6 51 -5 64 25 10 25 15 29 26
20 10 -8 14 -8 14 0 0 25 18 8 28 -28 14 -46 15 -81 3 -100 -10 -15 -9 -16
-26 64 -3 15 -10 23 -16 19 -7 -4 -8 -9 -1 -13 5 -3 10 -17 11 -31 0 -14 2
-34 3 -45 2 -13 -2 -19 -11 -17 -12 3 -12 0 -1 -12 7 -9 19 -16 27 -16 8 0 11
-4 8 -10 -3 -5 -18 -10 -33 -10 -15 0 -37 -7 -48 -15 -17 -11 -29 -12 -58 -4
-49 14 -65 42 -65 112 1 32 -2 61 -5 64 -6 6 -11 -66 -8 -114 1 -30 -6 -29
-48 10 l-35 32 30 -33 c17 -19 51 -45 77 -58 45 -23 80 -54 45 -41 -9 3 -49
-3 -89 -15 -40 -11 -80 -22 -88 -23 -39 -5 -86 -18 -98 -28 -9 -7 -30 -1 -75
21 -49 24 -56 26 -34 8 15 -12 27 -24 27 -27 0 -3 -31 -5 -68 -5 -38 1 -75 -4
-83 -10 -16 -12 -384 -13 -410 0 -19 8 -14 46 8 59 7 4 13 13 13 18 0 16 23
36 69 60 23 11 44 25 47 31 3 5 17 14 31 19 16 6 23 14 19 24 -4 11 2 15 19
15 13 0 26 4 30 10 3 5 12 7 20 4 7 -3 18 4 25 16 9 17 17 20 36 16 15 -4 42
1 67 12 49 22 98 36 111 33 5 -1 30 3 55 9 25 6 80 13 121 15 41 2 84 5 95 7
17 3 20 -4 23 -41 2 -25 10 -54 18 -65 14 -19 15 -15 11 49 -2 40 -11 85 -21
104 -35 67 16 160 99 180 l40 10 -47 -2 c-41 -1 -53 4 -80 30 -18 17 -40 33
-48 37 -8 3 15 5 53 3 68 -3 83 4 48 23 -35 18 -117 11 -188 -16 -72 -28 -226
-57 -216 -40 4 6 -1 6 -13 2 -38 -16 -77 -25 -68 -17 30 27 286 112 338 112
21 0 35 3 32 6 -3 4 4 11 17 18 19 10 29 6 75 -28 28 -22 52 -45 52 -51z
m-770 17 c0 -5 -10 -20 -23 -34 -17 -21 -35 -29 -76 -34 l-55 -6 26 26 c14 14
32 23 39 20 8 -3 28 4 44 15 32 21 45 25 45 13z m127 -109 c-3 -3 -12 -4 -19
-1 -8 3 -5 6 6 6 11 1 17 -2 13 -5z m135 -44 c4 0 4 8 1 18 -6 15 -5 15 10 3
17 -14 23 -41 10 -41 -11 0 -73 39 -73 45 0 4 10 -1 22 -9 12 -9 26 -16 30
-16z m428 27 c0 -26 -63 -110 -74 -99 -4 3 -13 -4 -22 -16 -8 -12 -22 -22 -30
-22 -17 0 -17 1 -4 36 8 19 8 29 0 34 -16 10 71 69 103 70 15 0 27 -2 27 -3z
m276 -209 c3 -52 3 -53 -11 -23 -17 36 -19 55 -5 55 5 0 7 8 3 18 -3 9 -3 14
2 10 4 -4 9 -31 11 -60z m142 -12 c107 -15 122 -18 122 -31 0 -7 -7 -18 -15
-25 -8 -7 -15 -20 -15 -30 0 -13 -11 -19 -37 -24 -55 -8 -65 -11 -96 -24 -16
-7 -33 -12 -39 -12 -7 0 -7 -4 1 -13 12 -15 5 -27 -17 -27 -11 0 -13 9 -9 40
3 22 1 56 -5 77 -21 85 -23 78 22 76 23 0 63 -4 88 -7z m-421 -38 c-3 -8 -6
-5 -6 6 -1 11 2 17 5 13 3 -3 4 -12 1 -19z m591 6 c-9 -10 -21 -13 -29 -8 -9
5 -8 9 7 15 31 12 39 10 22 -7z m-292 -120 c-4 -13 -13 -24 -21 -24 -19 0 -19
9 2 56 15 35 17 37 21 15 2 -12 1 -34 -2 -47z m789 1 c89 -33 233 -113 268
-147 23 -22 26 -31 17 -47 -6 -13 -7 -28 0 -45 8 -22 5 -28 -23 -48 -18 -12
-33 -26 -35 -30 -2 -4 -22 -16 -45 -27 -23 -10 -54 -31 -69 -45 -15 -14 -34
-26 -42 -26 -9 0 -20 -9 -27 -21 -7 -14 -17 -19 -30 -16 -11 3 -33 -2 -48 -11
-27 -15 -32 -14 -127 21 -134 50 -459 117 -566 117 -21 0 -38 2 -38 4 0 35 65
78 106 71 24 -5 36 1 68 31 35 32 43 35 77 30 26 -4 40 -2 46 7 14 22 83 59
99 53 10 -4 14 0 12 12 -2 13 3 16 27 15 42 -4 97 26 89 49 -5 18 10 25 20 9
8 -13 42 -2 62 20 9 10 26 19 36 19 10 0 21 7 24 15 8 20 23 19 99 -10z m-832
-142 c-7 -2 -21 -2 -30 0 -10 3 -4 5 12 5 17 0 24 -2 18 -5z m-246 -79 c-3 -3
-12 -4 -19 -1 -8 3 -5 6 6 6 11 1 17 -2 13 -5z m258 -4 c-4 -6 -49 -9 -108 -8
l-102 2 105 6 c58 3 106 7 108 8 2 1 0 -2 -3 -8z m-218 -36 c-3 -3 -12 -4 -19
-1 -8 3 -5 6 6 6 11 1 17 -2 13 -5z m256 -62 c10 -9 37 -55 58 -102 22 -47 45
-95 51 -108 10 -19 8 -26 -10 -42 -12 -11 -28 -20 -37 -20 -44 0 -205 -130
-205 -165 0 -8 -7 -15 -15 -15 -8 0 -22 -11 -32 -23 l-17 -24 -13 25 c-7 13
-13 31 -13 39 0 18 47 100 63 111 7 4 22 28 35 55 17 38 22 63 20 125 l-1 77
-6 -87 c-5 -61 -11 -92 -24 -105 -9 -11 -17 -23 -17 -26 0 -4 -20 -38 -45 -77
-25 -39 -45 -75 -45 -81 0 -6 -6 -9 -14 -6 -8 3 -16 1 -18 -5 -8 -23 -638 -12
-746 12 l-54 12 23 24 c12 13 29 24 36 24 8 0 24 6 36 14 12 7 60 19 107 25
47 7 89 16 95 19 5 3 24 5 41 3 18 -1 35 3 39 8 3 6 10 9 15 6 5 -3 38 -1 72
4 35 5 122 12 195 15 130 5 131 5 137 -17 3 -13 -1 -45 -10 -72 -8 -27 -10
-45 -5 -40 5 6 14 28 21 50 7 22 19 49 26 60 19 26 17 45 -1 21 -8 -11 -16
-18 -18 -15 -8 10 -47 81 -47 85 0 2 11 4 25 4 19 0 25 -5 25 -22 0 -27 8 -19
13 13 2 13 -6 54 -19 91 l-22 67 23 15 c14 9 28 16 33 16 5 0 20 9 32 20 30
26 61 22 78 -10 l13 -25 -3 25 c-2 18 1 24 13 22 9 -1 22 5 29 14 16 18 55 12
83 -14z m150 -307 c48 -9 97 -20 110 -25 l22 -9 -22 0 c-12 -1 -25 -5 -28 -11
-3 -5 -15 -10 -26 -10 -10 0 -19 -5 -19 -10 0 -16 -45 -29 -106 -32 -31 -1
-58 -6 -60 -10 -3 -4 -18 -5 -35 -1 -25 5 -31 2 -36 -16 -6 -25 -12 -26 -46
-8 -23 12 -24 15 -11 38 11 23 30 37 114 92 31 20 36 20 143 2z m653 -190 c42
-32 76 -104 58 -122 -7 -7 -17 -13 -22 -13 -6 0 -12 -7 -16 -15 -3 -8 -12 -15
-19 -15 -26 0 -76 -31 -82 -50 -3 -10 -12 -17 -19 -14 -7 3 -39 -8 -70 -25
l-57 -29 -52 35 c-29 20 -94 55 -144 79 -51 24 -93 48 -93 53 0 9 57 27 74 22
8 -2 103 15 139 25 9 3 17 12 17 20 0 10 7 13 24 8 17 -4 30 0 44 14 11 11 34
23 52 27 17 4 43 13 58 21 33 17 66 11 108 -21z m-939 -72 c-2 -16 -4 -5 -4
22 0 28 2 40 4 28 2 -13 2 -35 0 -50z m2 -88 c0 -5 -6 1 -14 15 -8 14 -14 30
-14 35 0 6 6 -1 14 -15 8 -14 14 -29 14 -35z m25 -95 c17 -82 33 -112 21 -40
l-7 41 44 -7 c147 -20 301 -60 372 -96 l38 -20 -27 -14 c-16 -8 -36 -12 -46
-9 -9 3 -20 1 -24 -5 -3 -5 -18 -10 -32 -10 -15 0 -34 -7 -43 -15 -9 -8 -45
-19 -80 -24 -35 -4 -66 -13 -67 -18 -2 -6 -17 -9 -34 -7 -17 2 -69 -5 -116
-15 -73 -16 -124 -18 -317 -16 -199 1 -242 5 -312 23 -106 27 -211 70 -218 87
-6 16 39 55 63 55 10 0 21 4 27 9 5 6 23 12 39 15 17 2 30 5 30 6 0 5 172 42
270 59 77 14 337 5 346 -11 4 -7 15 -22 24 -33 16 -19 17 -19 3 5 -18 31 -29
72 -18 65 5 -3 14 8 22 25 7 16 16 30 19 30 3 0 13 -36 23 -80z"/>
<path d="M1801 2217 c0 -16 -5 -26 -11 -22 -6 3 -13 -2 -16 -12 -3 -10 -12
-33 -20 -50 -20 -47 -4 -40 29 12 19 30 27 54 24 72 l-4 28 -2 -28z"/>
<path d="M1829 2212 c-3 -20 -2 -29 4 -23 5 5 7 19 5 32 -3 20 -5 19 -9 -9z"/>
<path d="M1380 2053 c-41 -9 -69 -18 -63 -20 7 -3 47 3 89 12 83 19 135 15
168 -12 21 -17 21 -17 -1 6 -28 31 -92 35 -193 14z"/>
<path d="M1263 2023 c9 -2 23 -2 30 0 6 3 -1 5 -18 5 -16 0 -22 -2 -12 -5z"/>
<path d="M1780 2000 c-11 -8 -7 -9 15 -4 37 8 45 14 19 14 -10 0 -26 -5 -34
-10z"/>
<path d="M1230 1981 c0 -3 32 -38 72 -76 39 -39 56 -52 37 -30 -49 56 -109
114 -109 106z"/>
<path d="M1798 1230 c-3 -17 -1 -33 4 -36 4 -3 8 11 8 30 0 44 -6 47 -12 6z"/>
<path d="M1855 786 c10 -14 19 -26 22 -26 7 0 -17 39 -28 46 -6 3 -3 -5 6 -20z"/>
</g>
</svg>
